<?xml version="1.0" standalone="no"?>
<!DOCTYPE svg PUBLIC "-//W3C//DTD SVG 20010904//EN"
 "http://www.w3.org/TR/2001/REC-SVG-20010904/DTD/svg10.dtd">
<svg version="1.0" xmlns="http://www.w3.org/2000/svg"
 width="30.000000pt" height="30.000000pt" viewBox="0 0 30.000000 30.000000"
 preserveAspectRatio="xMidYMid meet">

<g transform="translate(0.000000,30.000000) scale(0.100000,-0.100000)"
fill="#000000" stroke="none">
<path d="M140 209 c0 -54 -2 -60 -15 -49 -28 23 -29 0 -2 -28 l27 -27 27 27
c27 28 26 51 -2 28 -13 -11 -15 -5 -15 49 0 34 -4 61 -10 61 -6 0 -10 -27 -10
-61z"/>
<path d="M64 229 c-24 -25 -29 -39 -29 -79 0 -43 5 -54 33 -82 28 -28 39 -33
82 -33 43 0 54 5 82 33 28 28 33 39 33 82 0 40 -5 54 -29 79 -29 30 -56 41
-56 22 0 -5 9 -13 20 -16 23 -7 50 -53 50 -85 0 -51 -49 -100 -100 -100 -51 0
-100 49 -100 100 0 32 27 78 50 85 11 3 20 11 20 16 0 19 -27 8 -56 -22z"/>
</g>
</svg>
